<svg xmlns="http://www.w3.org/2000/svg" x="0px" y="0px"
width="30" height="30"
viewBox="0 0 172 172"
style=" fill:#000000;"><g fill="none" fill-rule="nonzero" stroke="none" stroke-width="1" stroke-linecap="butt" stroke-linejoin="miter" stroke-miterlimit="10" stroke-dasharray="" stroke-dashoffset="0" font-family="none" font-weight="none" font-size="none" text-anchor="none" style="mix-blend-mode: normal"><path d="M0,172v-172h172v172z" fill="none"></path><g fill="#ff005d"><path d="M86,17.2c-37.9948,0 -68.8,30.8052 -68.8,68.8c0,37.9948 30.8052,68.8 68.8,68.8c37.9948,0 68.8,-30.8052 68.8,-68.8c0,-37.9948 -30.8052,-68.8 -68.8,-68.8zM94.10693,86c0,0 17.99693,17.99693 18.87987,18.87987c2.24173,2.24173 2.24173,5.87093 0,8.10693c-2.24173,2.24173 -5.87093,2.24173 -8.10693,0c-0.88293,-0.8772 -18.87987,-18.87987 -18.87987,-18.87987c0,0 -17.99693,17.99693 -18.87987,18.87987c-2.24173,2.24173 -5.87093,2.24173 -8.10693,0c-2.24173,-2.24173 -2.24173,-5.87093 0,-8.10693c0.8772,-0.88293 18.87987,-18.87987 18.87987,-18.87987c0,0 -17.99693,-17.99693 -18.87987,-18.87987c-2.24173,-2.24173 -2.24173,-5.87093 0,-8.10693c2.24173,-2.24173 5.87093,-2.24173 8.10693,0c0.88293,0.8772 18.87987,18.87987 18.87987,18.87987c0,0 17.99693,-17.99693 18.87987,-18.87987c2.24173,-2.24173 5.87093,-2.24173 8.10693,0c2.24173,2.24173 2.24173,5.87093 0,8.10693c-0.8772,0.88293 -18.87987,18.87987 -18.87987,18.87987z"></path></g></g></svg>
